HIERARCHY
ROOT Hips
{
	OFFSET 0.00000 0.00000 0.00000
	CHANNELS 6 Xposition Yposition Zposition Yrotation Zrotation Xrotation 
	JOINT Lumbar
	{
		OFFSET 0 0 0
		CHANNELS 3 Zrotation Xrotation Yrotation
		JOINT Neck
		{
			OFFSET 0.00 0.2701 0.00
			CHANNELS 3 Zrotation Xrotation Yrotation
			End Site
			{
				OFFSET 0.00 0.1379 0.00
			}
		}
		JOINT RightShoulder
		{
			OFFSET 0.0119 0.2289 0.1181
			CHANNELS 3 Zrotation Xrotation Yrotation
			JOINT RightElbow
			{
				OFFSET 0.00 -0.1475 0.00
				CHANNELS 2 Zrotation Yrotation
				JOINT RightWrist
				{
					OFFSET 0.00 -0.1605 0.00
					CHANNELS 2 Zrotation Xrotation
					End Site
					{
						OFFSET 0.0040 -0.1068 0.0006
					}
				}
			}
		}
		JOINT LeftShoulder
		{
			OFFSET 0.0119 0.2289 -0.1181
			CHANNELS 3 Zrotation Xrotation Yrotation
			JOINT LeftElbow
			{
				OFFSET 0.00 -0.1475 0.00
				CHANNELS 2 Zrotation Yrotation
				JOINT LeftWrist
				{
					OFFSET 0.00 -0.1605 0.00
					CHANNELS 2 Zrotation Xrotation
					End Site
					{
						OFFSET 0.0040 -0.1068 -0.0006
					}
				}
			}
		}
	}
	JOINT RightHip
	{
		OFFSET 0.0316 -0.0424 0.0458
		CHANNELS 3 Zrotation Xrotation Yrotation
		JOINT RightKnee
		{
			OFFSET 0.00 -0.2438 0.00
			CHANNELS 1 Zrotation
			JOINT RightAnkle
			{
				OFFSET 0.00 -0.2449 0.00
				CHANNELS 3 Zrotation Xrotation Yrotation
				End Site
				{
					OFFSET 0.1237 -0.0542 0.0051
				}
			}
		}
	}
	JOINT LeftHip
	{
		OFFSET 0.0316 -0.0424 -0.0458
		CHANNELS 3 Zrotation Xrotation Yrotation
		JOINT LeftKnee
		{
			OFFSET 0.00 -0.2438 0.00
			CHANNELS 1 Zrotation
			JOINT LeftAnkle
			{
				OFFSET 0.00 -0.2449 0.00
				CHANNELS 3 Zrotation Xrotation Yrotation
				End Site
				{
					OFFSET 0.1237 -0.0542 -0.0051
				}
			}
		}
	}
}
MOTION
Frames: 30
Frame Time: 0.02
0.7262 -0.184 0.0289 184.58848 -4.60937 0.92432 13.96987 -1.41285 -1.31639 8.88726 -6.43173 -0.83079 39.30996 10.03623 32.84254 127.86677 73.20635 13.22617 -5.44208 26.07579 -7.50553 0.42546 19.16628 -45.26483 -24.1037 -2.85462 112.82571 -10.49035 -1.89138 -120.64029 -16.87817 -1.32966 -1.66404 80.88072 7.89961 -3.47476 -56.26626 -19.15086 2.32695 2.38274
0.72533 -0.18346 0.02915 184.65694 -5.01327 0.83215 14.26123 -1.36277 -1.22054 8.87669 -6.21705 -0.83079 39.29282 10.1691 32.55794 127.89037 72.91056 13.59869 -5.47373 25.04035 -6.81108 -2.80879 20.74643 -47.65663 -23.1406 -2.57285 112.88591 -10.47396 -1.88265 -121.745 -16.74785 -1.28596 -1.63122 80.73246 8.12318 -3.36301 -54.50519 -19.36778 2.25962 2.35058
0.72429 -0.1828 0.02939 184.70949 -5.47775 0.73873 14.5871 -1.30602 -1.11442 8.92307 -6.00312 -0.83079 39.50333 10.08119 32.35349 127.89976 72.83183 13.68444 -5.47639 23.89429 -5.9514 -6.7247 22.47377 -50.62898 -21.82775 -2.25079 112.89409 -10.40921 -1.72495 -122.82193 -16.52047 -1.24921 -1.59878 80.57522 8.58175 -2.839 -52.75282 -19.55942 2.19164 2.31619
0.72331 -0.1822 0.02964 184.76703 -5.91308 0.64336 14.89339 -1.2511 -1.01697 8.9466 -5.78524 -0.83079 39.62029 10.0745 32.12035 127.9182 72.67821 13.86783 -5.49048 22.80191 -5.18446 -10.21703 24.11919 -53.23968 -20.72693 -1.95544 112.92575 -10.3669 -1.62835 -123.90625 -16.33938 -1.20555 -1.56416 80.418 8.9212 -2.52721 -51.01588 -19.7589 2.12571 2.28383
0.72238 -0.18159 0.02986 184.83471 -6.35965 0.55795 15.2203 -1.20097 -0.90244 8.95739 -5.58282 -0.83079 39.69284 10.15483 31.84902 127.92413 72.42074 14.19793 -5.5126 21.68369 -4.34508 -14.1891 25.84265 -56.27364 -19.40324 -1.62279 112.95208 -10.32406 -1.55702 -125.01319 -16.14638 -1.17685 -1.53741 80.27979 9.30454 -2.12859 -49.19131 -19.97404 2.05173 2.24692
0.72132 -0.18098 0.03014 184.87753 -6.79451 0.45178 15.50986 -1.13914 -0.82188 9.00771 -5.34804 -0.83079 39.90734 10.0064 31.67611 127.95347 72.42261 14.16247 -5.51183 20.59974 -3.6168 -17.32375 27.42957 -58.56393 -18.45743 -1.35879 112.98022 -10.2706 -1.39855 -126.0638 -15.95747 -1.11939 -1.49486 80.09844 9.65555 -1.80337 -47.5559 -20.14811 1.99466 2.21898
0.71992 -0.18037 0.03056 184.85173 -7.19424 0.28852 15.6998 -1.04971 -0.82771 9.15962 -5.02681 -0.83079 40.52863 9.18679 31.78455 128.04969 73.21329 13.04169 -5.44243 19.60942 -3.23278 -17.98345 28.6446 -58.60861 -18.67553 -1.29646 113.01657 -10.19576 -1.03746 -126.9961 -15.78755 -0.97583 -1.40524 79.80988 9.85752 -1.81457 -46.4128 -20.24522 1.98375 2.21742
0.71841 -0.17977 0.03105 184.80199 -7.57734 0.10461 15.84808 -0.94834 -0.86953 9.34819 -4.67254 -0.83079 41.27377 8.15829 31.98557 128.17065 74.23865 11.5842 -5.35276 18.66429 -2.9665 -17.77673 29.70806 -57.89211 -19.27977 -1.30448 113.05892 -10.11235 -0.59408 -127.86775 -15.62814 -0.80413 -1.3004 79.4771 10.02024 -1.90636 -45.46591 -20.29741 1.99004 2.22483
0.71695 -0.17917 0.03152 184.76567 -7.95977 -0.06984 16.00744 -0.85034 -0.90163 9.51597 -4.33118 -0.83079 41.91634 7.28673 32.12545 128.28095 75.07297 10.37715 -5.28073 17.71765 -2.64787 -17.96343 30.81223 -57.55472 -19.68467 -1.27915 113.10564 -10.03521 -0.18751 -128.74694 -15.47482 -0.64858 -1.20473 79.15696 10.20373 -1.93655 -44.44733 -20.34961 1.98906 2.22749
0.71544 -0.17852 0.03193 184.71828 -8.37932 -0.24506 16.2021 -0.76032 -0.90655 9.7034 -3.99816 -0.83079 42.75911 6.15271 32.34601 128.38719 76.26041 8.76097 -5.17348 16.68505 -2.31854 -18.17324 32.04014 -57.09755 -20.17807 -1.25825 113.12096 -9.9465 0.22255 -129.70779 -15.27279 -0.47888 -1.09948 78.86451 10.3835 -2.05483 -43.35321 -20.48359 1.98599 2.23289
0.71403 -0.17799 0.03249 184.68821 -8.71655 -0.42309 16.31176 -0.65151 -0.97529 9.85756 -3.64065 -0.83079 43.21515 5.5101 32.42261 128.50932 76.77841 7.90591 -5.13347 15.84572 -2.04174 -18.12285 32.97303 -56.70175 -20.58339 -1.24531 113.20323 -9.88033 0.64203 -130.48688 -15.17523 -0.33212 -1.01068 78.50838 10.55791 -2.01814 -42.46543 -20.44124 1.99107 2.23478
0.71292 -0.17775 0.03348 184.71406 -8.83219 -0.60782 16.20608 -0.48891 -1.22407 9.9132 -3.2175 -0.83079 42.53898 6.3498 32.05224 128.65744 75.27617 9.36342 -5.29896 15.51293 -1.88081 -17.53972 33.1205 -56.65562 -20.65287 -1.2379 113.47374 -9.88006 1.07371 -130.75761 -15.37046 -0.25375 -0.96999 77.94867 10.73264 -1.49995 -42.07745 -19.88527 2.0169 2.22447
0.71192 -0.17763 0.0346 184.75779 -8.86496 -0.79388 16.01439 -0.30883 -1.53356 9.93338 -2.77207 -0.83079 41.47429 7.67899 31.53851 128.82275 73.1117 11.57682 -5.53044 15.37679 -1.76969 -16.7258 32.97649 -56.69559 -20.62174 -1.23618 113.81037 -9.90281 1.50968 -130.8509 -15.66944 -0.19977 -0.94656 77.33305 10.90115 -0.8312 -41.89379 -19.16025 2.04994 2.21038
0.71089 -0.17746 0.03564 184.792 -8.93422 -0.97676 15.85585 -0.13987 -1.807 9.96794 -2.34075 -0.83079 40.60901 8.73579 31.10753 128.98832 71.32514 13.36012 -5.72179 15.16164 -1.63667 -16.03162 32.97099 -56.69722 -20.63729 -1.23152 114.11433 -9.91412 1.9393 -131.04048 -15.91718 -0.13581 -0.91592 76.76906 11.06773 -0.25586 -41.63178 -18.53792 2.07801 2.19821
0.70975 -0.17725 0.03679 184.83139 -9.00775 -1.17139 15.72093 0.0432 -2.11731 10.01107 -1.89116 -0.83079 39.65291 9.99385 30.6052 129.12159 69.22484 15.49328 -5.95421 14.90382 -1.50404 -15.24605 32.93687 -56.6697 -20.66229 -1.23066 114.43121 -9.92885 2.39214 -131.1649 -16.18341 -0.0662 -0.88208 76.09518 11.25314 0.4217 -41.31803 -17.80617 2.11361 2.18547
0.70888 -0.17716 0.03773 184.86436 -9.05307 -1.34142 15.51695 0.20052 -2.36487 10.02753 -1.47512 -0.83079 38.79062 10.9544 30.21662 129.32474 67.61411 17.08636 -6.11831 14.78153 -1.38154 -14.60584 32.89246 -56.73276 -20.63845 -1.22248 114.73473 -9.94252 2.79445 -131.37988 -16.43453 -0.01456 -0.85919 75.63451 11.39839 0.92404 -41.15471 -17.26108 2.13526 2.17297
0.70872 -0.17741 0.03805 184.87696 -9.03924 -1.44433 15.14325 0.28557 -2.4231 9.97785 -1.15471 -0.83079 38.29428 10.95166 30.17304 129.72638 67.54691 16.96463 -6.06642 14.98073 -1.26912 -14.43895 32.91447 -57.0312 -20.50542 -1.191 115.00324 -9.94382 3.0738 -131.92162 -16.62832 -0.00635 -0.86257 75.80259 11.43348 0.89739 -41.38504 -17.28787 2.11436 2.16141
0.70884 -0.17778 0.03815 184.8822 -9.00019 -1.52204 14.70335 0.34349 -2.41604 9.90243 -0.86973 -0.83079 37.90316 10.63771 30.24903 130.19567 67.98871 16.28215 -5.94552 15.30998 -1.16569 -14.42795 32.93286 -57.42042 -20.32467 -1.1519 115.25275 -9.94405 3.29863 -132.55485 -16.80153 -0.01556 -0.8764 76.18276 11.42873 0.69111 -41.75397 -17.50589 2.07947 2.15031
0.70885 -0.17809 0.03834 184.88985 -8.97383 -1.61052 14.29389 0.41171 -2.43956 9.83956 -0.56998 -0.83079 37.4551 10.48188 30.27272 130.62767 68.17663 15.88347 -5.86386 15.58279 -1.06124 -14.33944 32.9378 -57.76766 -20.16311 -1.11711 115.49895 -9.94731 3.53621 -133.12456 -16.97762 -0.01711 -0.88538 76.44847 11.44281 0.57295 -42.03924 -17.62658 2.0524 2.13941
0.70881 -0.17842 0.03856 184.90235 -8.93956 -1.70224 13.87944 0.48904 -2.46173 9.77249 -0.26274 -0.83079 37.03098 10.27294 30.28349 131.08852 68.43614 15.38889 -5.75188 15.8521 -0.94553 -14.2695 32.99488 -58.12041 -20.00864 -1.07916 115.79738 -9.94055 3.82398 -133.78018 -17.18441 -0.01849 -0.89543 76.78742 11.45337 0.43272 -42.41688 -17.78488 2.01953 2.12667
0.70892 -0.17874 0.03867 184.90241 -8.91661 -1.78085 13.46137 0.54081 -2.46996 9.70774 0.01884 -0.83079 36.58845 10.09387 30.35063 131.50438 68.67689 14.95078 -5.68497 16.15596 -0.85489 -14.20225 32.94798 -58.4823 -19.82955 -1.04568 115.98227 -9.95421 3.99517 -134.28153 -17.32135 -0.02395 -0.90544 77.02629 11.46216 0.29371 -42.63507 -17.91304 1.9952 2.11788
0.70941 -0.17901 0.03851 184.87286 -8.93382 -1.83223 13.04505 0.52793 -2.45936 9.66256 0.24966 -0.83079 36.05902 10.07535 30.55138 131.78553 68.73662 14.80516 -5.76648 16.53148 -0.82962 -14.0956 32.60205 -58.84693 -19.59217 -1.02812 115.85263 -10.02337 3.84924 -134.33007 -17.26693 -0.03731 -0.91328 76.92544 11.47365 0.20265 -42.35467 -17.90723 1.99878 2.1204
0.71003 -0.17926 0.03826 184.83042 -8.96321 -1.87077 12.62882 0.49033 -2.43615 9.61957 0.45363 -0.83079 35.51151 10.09479 30.80406 132.01776 68.76399 14.73205 -5.89413 16.93475 -0.82921 -13.98889 32.15541 -59.21721 -19.33257 -1.01502 115.61016 -10.11313 3.58936 -134.22194 -17.14311 -0.05391 -0.92055 76.719 11.48519 0.11815 -41.91256 -17.86606 2.01124 2.12682
0.71058 -0.17951 0.03805 184.79184 -8.98562 -1.91333 12.21568 0.46445 -2.4158 9.57111 0.66231 -0.83079 34.98073 10.09314 31.02896 132.26843 68.81268 14.62243 -5.99562 17.31902 -0.81838 -13.88951 31.76482 -59.5849 -19.08478 -0.99868 115.42262 -10.19416 3.38735 -134.18934 -17.05279 -0.06833 -0.92763 76.56866 11.49818 0.02946 -41.55939 -17.84457 2.01896 2.13115
0.71118 -0.17979 0.03782 184.76137 -9.0131 -1.96258 11.78623 0.43558 -2.40469 9.54026 0.90142 -0.83079 34.4166 10.09724 31.27571 132.53787 68.85115 14.50884 -6.11649 17.73503 -0.80462 -13.7657 31.33074 -59.95642 -18.82766 -0.98702 115.21875 -10.27279 3.15808 -134.14148 -16.95332 -0.08633 -0.93692 76.39128 11.50358 -0.06036 -41.14584 -17.81452 2.02912 2.13679
0.71171 -0.18 0.03762 184.71115 -9.03339 -1.99528 11.39253 0.40742 -2.37297 9.47405 1.07122 -0.83079 33.91738 10.10225 31.48758 132.75526 68.89623 14.4278 -6.20909 18.08969 -0.8022 -13.68933 30.96315 -60.31946 -18.58578 -0.96699 115.02272 -10.36098 2.95884 -134.0871 -16.85695 -0.09747 -0.94141 76.24255 11.52528 -0.14386 -40.818 -17.79127 2.03655 2.14067
0.71198 -0.18003 0.0375 184.60857 -9.02996 -1.98459 11.09055 0.38723 -2.28074 9.30594 1.05634 -0.83079 33.59287 10.10233 31.59147 132.8444 68.97025 14.4217 -6.21046 18.26802 -0.82953 -13.7559 30.80646 -60.66226 -18.38815 -0.92104 114.87264 -10.47332 2.87403 -134.05198 -16.78394 -0.08814 -0.93215 76.19644 11.59235 -0.21206 -40.76399 -17.79617 2.03393 2.1385
0.71217 -0.18 0.03742 184.48679 -9.01918 -1.95791 10.82622 0.36872 -2.16967 9.10307 0.97281 -0.83079 33.33547 10.1032 31.65772 132.88192 69.04925 14.44801 -6.18246 18.38302 -0.8666 -13.8673 30.71971 -60.99476 -18.20752 -0.86691 114.73514 -10.59405 2.82302 -134.01543 -16.71698 -0.07184 -0.91814 76.18214 11.67581 -0.27337 -40.80153 -17.80806 2.02841 2.13449
0.71238 -0.18 0.03732 184.37447 -9.01246 -1.93927 10.54955 0.34962 -2.07201 8.91861 0.92078 -0.83079 33.05273 10.10398 31.73989 132.94037 69.12138 14.46043 -6.16952 18.52639 -0.89604 -13.9495 30.59926 -61.32882 -18.02146 -0.81765 114.59404 -10.70914 2.75437 -133.9798 -16.64874 -0.05909 -0.90666 76.15378 11.7519 -0.33631 -40.79809 -17.81531 2.0245 2.13149
0.71265 -0.17998 0.03722 184.25853 -9.00309 -1.91713 10.25257 0.32901 -1.95374 8.7229 0.86646 -0.83079 32.74771 10.10466 31.8288 133.00758 69.21128 14.47165 -6.15101 18.67247 -0.93949 -14.06875 30.48341 -61.67736 -17.82478 -0.76352 114.4397 -10.83272 2.69113 -133.93766 -16.57173 -0.04482 -0.89361 76.12037 11.82824 -0.40459 -40.78663 -17.82757 2.01958 2.12785
